<svg width="32" height="32" viewBox="0 0 32 32" fill="none" xmlns="http://www.w3.org/2000/svg">
<path d="M0.000732422 16.0001C0.000732422 18.1352 1.73728 19.8721 3.87286 19.8721H12.1294V28.128C12.1294 30.2632 13.8659 32.0001 16.0014 32.0001C18.1373 32.0001 19.8735 30.2632 19.8735 28.128V19.8721H28.1275C30.2627 19.8721 31.9996 18.1352 31.9996 16.0001C31.9996 13.8645 30.2627 12.1279 28.1275 12.1279H19.8734V3.87213C19.8734 1.73655 18.1372 0 16.0014 0C13.8659 0 12.1294 1.73655 12.1294 3.87213V12.128H3.87286C1.73739 12.128 0.000732422 13.8646 0.000732422 16.0001ZM12.7747 13.4186C13.1317 13.4186 13.4201 13.1294 13.4201 12.7733V3.87213C13.4201 2.44855 14.5778 1.29071 16.0014 1.29071C17.4251 1.29071 18.5828 2.44844 18.5828 3.87213V12.7734C18.5828 13.1295 18.8715 13.4187 19.2282 13.4187H28.1275C29.5511 13.4187 30.7089 14.5764 30.7089 16.0002C30.7089 17.4237 29.5512 18.5816 28.1275 18.5816H19.2282C18.8715 18.5816 18.5828 18.8708 18.5828 19.2268V28.1281C18.5828 29.5518 17.4252 30.7095 16.0014 30.7095C14.5778 30.7095 13.4201 29.5519 13.4201 28.1281V19.2268C13.4201 18.8707 13.1317 18.5816 12.7747 18.5816H3.87286C2.44918 18.5816 1.29144 17.4238 1.29144 16.0002C1.29144 14.5765 2.44918 13.4187 3.87286 13.4187L12.7747 13.4186Z" fill="white"/>
</svg>
