<svg width="31" height="29" viewBox="0 0 31 29" fill="none" xmlns="http://www.w3.org/2000/svg">
<path d="M15.5 29C15.3347 29 15.1693 28.9354 15.0427 28.8075L8.58442 22.2166C8.39971 22.0281 8.34417 21.7447 8.44492 21.4982C8.54567 21.2517 8.78075 21.0909 9.04167 21.0909H12.2708V14.5C12.2708 13.7737 12.8495 13.1818 13.5625 13.1818H17.4375C18.1505 13.1818 18.7292 13.7737 18.7292 14.5V21.0909H21.9583C22.2193 21.0909 22.4556 21.2517 22.5551 21.4982C22.6545 21.7447 22.599 22.0281 22.4156 22.2166L15.9573 28.8075C15.8307 28.9354 15.6653 29 15.5 29ZM10.6007 22.4091L15.5 27.409L20.3993 22.4091H18.0833C17.7268 22.4091 17.4375 22.1138 17.4375 21.75V14.5H13.5625V21.75C13.5625 22.1138 13.2732 22.4091 12.9167 22.4091H10.6007Z" fill="white"/>
<path d="M5.81379 21.0514C5.78925 21.0514 5.766 21.05 5.74017 21.0474C2.46837 20.677 0 17.8614 0 14.5C0 11.0174 2.65954 8.15823 6.014 7.92491C6.90783 3.36927 10.8926 0 15.5 0C19.118 0 22.4505 2.08009 24.0935 5.33073C27.9969 5.74859 31 9.12445 31 13.1818C31 16.7145 28.6802 19.8386 25.3606 20.7772C25.0118 20.8734 24.6605 20.6678 24.5662 20.3171C24.4706 19.9665 24.6721 19.6027 25.0157 19.5065C27.7786 18.7261 29.7083 16.124 29.7083 13.1818C29.7083 9.69259 27.0436 6.80841 23.6414 6.61595C23.4024 6.60277 23.1919 6.45645 23.0911 6.23632C21.7245 3.24932 18.746 1.31818 15.5 1.31818C11.3473 1.31818 7.77971 4.47523 7.20104 8.66045C7.15583 8.98473 6.88329 9.22727 6.56167 9.22727C3.60892 9.22727 1.29167 11.5921 1.29167 14.5C1.29167 17.1891 3.26533 19.4405 5.88483 19.7371C6.23875 19.778 6.4945 20.1036 6.45446 20.4648C6.41829 20.8022 6.138 21.0514 5.81379 21.0514Z" fill="white"/>
</svg>
