<svg width="25" height="32" viewBox="0 0 25 32" fill="none" xmlns="http://www.w3.org/2000/svg">
<path d="M9.78787 16.0079C9.26644 16.7933 8.69435 18.122 8.79789 19.2815C8.88811 20.2917 9.50769 21.2576 10.5897 22.075C11.0898 22.4528 11.5855 22.7239 11.9225 22.8886C11.8324 23.1376 11.733 23.3837 11.6227 23.6263C11.5153 23.8626 11.6224 24.1399 11.862 24.2458C12.0967 24.3496 12.3818 24.2489 12.4905 24.0099C12.6432 23.6741 12.778 23.3322 12.8953 22.9854C13.8447 22.5931 15.3045 21.7585 15.9228 20.1852C16.3968 18.9791 16.2939 17.5486 15.633 16.1573C14.9614 14.7434 13.7522 13.4893 12.2279 12.6257C11.9967 12.4948 11.7191 12.4918 11.485 12.6178C11.2517 12.7434 11.1046 12.9744 11.0916 13.2358C11.07 13.6661 10.9813 14.0769 10.8281 14.4567C10.5507 15.1443 10.1829 15.4126 9.78787 16.0079ZM11.7118 14.8031C11.8662 14.4206 11.9681 14.0149 12.0161 13.5933C13.2485 14.352 14.2208 15.3947 14.7718 16.5548C15.3216 17.7121 15.4154 18.8811 15.036 19.8464C14.8485 20.3237 14.3772 21.1322 13.2261 21.7839C13.3747 21.0921 13.4504 20.3742 13.4652 19.6672L14.3204 18.6726C14.4902 18.4751 14.4654 18.1792 14.265 18.0119C14.0647 17.8445 13.7646 17.8689 13.5948 18.0664L13.3973 18.2961C13.3266 17.6759 13.2022 17.0603 13.0235 16.4526C12.9504 16.2039 12.6867 16.0607 12.4344 16.1329C12.1822 16.2049 12.0369 16.4649 12.11 16.7136C12.3617 17.5696 12.4965 18.443 12.5138 19.322C12.2217 18.9916 11.8936 18.6922 11.5344 18.4307C11.3231 18.2769 11.0254 18.3211 10.8693 18.5294C10.7134 18.7376 10.7581 19.0311 10.9694 19.1849C11.3329 19.4496 11.6594 19.7594 11.9398 20.1061C12.1229 20.3324 12.2857 20.5761 12.4275 20.8308C12.3757 21.2176 12.3002 21.6001 12.2034 21.9774C11.919 21.8308 11.5433 21.6145 11.1681 21.331C10.291 20.6684 9.81234 19.9513 9.7452 19.1994C9.66823 18.3378 10.1108 17.2335 10.5836 16.5213C11.0043 15.8874 11.3794 15.627 11.7118 14.8031ZM24.9546 4.51L24.5381 3.22344C24.2769 2.41688 23.5244 1.875 22.6656 1.875H16.9353C17.0006 0.865752 16.2266 -0.000435411 15.1917 2.08929e-06H9.80841C8.78071 -0.00156041 7.98994 0.873502 8.06482 1.875H2.33444C1.47558 1.875 0.723106 2.41688 0.461948 3.22344L0.0453879 4.51C-0.0478783 4.79806 0.00442944 5.11581 0.185382 5.36C0.366399 5.60425 0.65761 5.75 0.964418 5.75H1.77053L2.60935 29.7369C2.65399 31.0059 3.69767 32 4.98545 32H20.0146C21.3023 32 22.346 31.0059 22.3907 29.7367L22.6343 22.7692C22.6434 22.5104 22.4379 22.2935 22.1755 22.2846C21.9149 22.2761 21.6929 22.4781 21.6838 22.7369L21.4402 29.7043C21.4134 30.4659 20.7872 31.0625 20.0146 31.0625H18.5406L19.4576 5.75H22.2777L21.7575 20.5336C21.7483 20.7923 21.9538 21.0093 22.2162 21.0183C22.2218 21.0185 22.2274 21.0186 22.233 21.0186C22.488 21.0186 22.6991 20.8192 22.708 20.5661L23.2294 5.75H24.0356C24.3423 5.75 24.6336 5.60419 24.8146 5.36C24.9955 5.11588 25.0479 4.79806 24.9546 4.51ZM9.80835 0.937502H15.1916C15.6875 0.933627 16.0534 1.39375 15.9841 1.875H9.01581C8.94778 1.38875 9.30658 0.937502 9.80835 0.937502ZM4.98545 31.0625C4.21282 31.0625 3.58665 30.4659 3.55989 29.7044L2.72215 5.75H5.54232L6.45939 31.0625H4.98545ZM24.0466 4.807C24.0425 4.8125 24.0395 4.8125 24.0356 4.8125H10.7811C10.5185 4.8125 10.3056 5.02238 10.3056 5.28125C10.3056 5.54013 10.5185 5.75 10.7811 5.75H18.506L17.5889 31.0625H7.41107L6.49394 5.75H8.54941C8.81203 5.75 9.02494 5.54013 9.02494 5.28125C9.02494 5.02238 8.81203 4.8125 8.54941 4.8125H0.964418C0.960551 4.8125 0.957507 4.8125 0.95345 4.807C0.949392 4.8015 0.950343 4.79869 0.951484 4.79506L1.36804 3.5085C1.50278 3.09219 1.89118 2.8125 2.33444 2.8125H22.6656C23.1088 2.8125 23.4972 3.09219 23.632 3.50844L24.0486 4.795C24.0497 4.79869 24.0507 4.8015 24.0466 4.807Z" fill="white"/>
</svg>
