<svg width="32" height="29" viewBox="0 0 32 29" fill="none" xmlns="http://www.w3.org/2000/svg">
<path d="M18 29H14C13.264 29 12.6667 28.4081 12.6667 27.6818V21.0909H9.33333C9.064 21.0909 8.82 20.9301 8.71733 20.6836C8.61467 20.4371 8.672 20.1537 8.86133 19.9652L15.528 13.3743C15.788 13.1172 16.2107 13.1172 16.4707 13.3743L23.1373 19.9652C23.328 20.1537 23.3853 20.4371 23.2813 20.6836C23.1773 20.9301 22.936 21.0909 22.6667 21.0909H19.3333V27.6818C19.3333 28.4081 18.736 29 18 29ZM10.9427 19.7727H13.3333C13.7013 19.7727 14 20.068 14 20.4318V27.6818H18V20.4318C18 20.068 18.2987 19.7727 18.6667 19.7727H21.0573L16 14.7729L10.9427 19.7727Z" fill="white"/>
<path d="M6.00133 21.0514C5.976 21.0514 5.952 21.05 5.92533 21.0474C2.548 20.677 0 17.8614 0 14.5C0 11.0174 2.74533 8.15823 6.208 7.92491C7.13067 3.36927 11.244 0 16 0C19.7347 0 23.1747 2.08009 24.8707 5.33073C28.9 5.74859 32 9.12445 32 13.1818C32 16.7145 29.6053 19.8386 26.1787 20.7772C25.8213 20.8734 25.456 20.6678 25.3587 20.3171C25.26 19.9665 25.468 19.6027 25.8227 19.5065C28.6747 18.7261 30.6667 16.124 30.6667 13.1818C30.6667 9.69259 27.916 6.80841 24.404 6.61595C24.1573 6.60277 23.94 6.45645 23.836 6.23632C22.4253 3.24932 19.3507 1.31818 16 1.31818C11.7133 1.31818 8.03067 4.47523 7.43333 8.66045C7.38667 8.98473 7.10533 9.22727 6.77333 9.22727C3.72533 9.22727 1.33333 11.5921 1.33333 14.5C1.33333 17.1891 3.37067 19.4405 6.07467 19.7371C6.44 19.778 6.704 20.1036 6.66267 20.4648C6.62533 20.8022 6.336 21.0514 6.00133 21.0514Z" fill="white"/>
</svg>
